<svg width="39" height="229" viewBox="0 0 39 229" fill="none" xmlns="http://www.w3.org/2000/svg">
<path d="M10.4256 227.288C10.7968 228.328 11.9411 228.87 12.9815 228.499L29.9342 222.449C30.9745 222.078 31.5169 220.933 31.1456 219.893C30.7743 218.853 29.63 218.31 28.5897 218.682L13.5206 224.059L8.14273 208.99C7.77146 207.95 6.62716 207.408 5.58685 207.779C4.54655 208.15 4.00418 209.295 4.37545 210.335L10.4256 227.288ZM34.4165 110.27L32.4832 110.782L34.4165 110.27ZM4.8626 54.8854L2.91407 55.3362L4.8626 54.8854ZM32.4832 110.782C38.2542 132.558 32.8857 161.175 25.8892 184.635C22.4078 196.309 18.5567 206.6 15.5754 213.973C14.0853 217.659 12.8137 220.612 11.9161 222.641C11.4673 223.655 11.1121 224.438 10.8699 224.966C10.7488 225.23 10.656 225.43 10.5939 225.563C10.5628 225.629 10.5394 225.679 10.524 225.712C10.5163 225.728 10.5105 225.741 10.5069 225.748C10.505 225.752 10.5037 225.755 10.5029 225.757C10.5024 225.758 10.5022 225.758 10.502 225.759C10.5019 225.759 10.5019 225.759 12.3092 226.615C14.1165 227.472 14.1168 227.471 14.1172 227.47C14.1175 227.47 14.1181 227.469 14.1187 227.467C14.1199 227.465 14.1217 227.461 14.1239 227.456C14.1285 227.447 14.135 227.433 14.1436 227.414C14.1607 227.378 14.1859 227.324 14.2187 227.254C14.2843 227.113 14.3807 226.906 14.5054 226.634C14.7548 226.091 15.1175 225.291 15.5741 224.259C16.4871 222.195 17.7757 219.202 19.2837 215.473C22.2989 208.016 26.1961 197.603 29.7224 185.779C36.7415 162.242 42.4266 132.687 36.3497 109.757L32.4832 110.782ZM4.8626 0.424453C2.88249 0.143116 2.88244 0.143462 2.88237 0.143937C2.88233 0.144266 2.88224 0.14487 2.88215 0.145529C2.88196 0.146847 2.8817 0.148679 2.88137 0.15102C2.88071 0.155702 2.87976 0.162425 2.87854 0.171166C2.87608 0.188648 2.87252 0.214202 2.86789 0.247651C2.85863 0.314547 2.84512 0.413024 2.82781 0.541652C2.79318 0.798903 2.74333 1.1768 2.68177 1.66391C2.55865 2.63805 2.38863 4.04941 2.19991 5.8065C1.82259 9.3195 1.36982 14.2205 1.06787 19.776C0.466941 30.8324 0.449948 44.6852 2.91407 55.3362L6.81114 54.4346C4.48144 44.3646 4.46444 30.987 5.06197 19.9931C5.35925 14.5235 5.80532 9.69445 6.17703 6.23367C6.36283 4.50387 6.52988 3.11742 6.6502 2.16547C6.71035 1.68953 6.75881 1.32231 6.79206 1.0752C6.80869 0.951653 6.82152 0.858143 6.83011 0.796096C6.8344 0.765074 6.83764 0.741918 6.83976 0.726807C6.84082 0.719252 6.8416 0.713708 6.84209 0.710197C6.84234 0.708442 6.84252 0.707196 6.84262 0.70646C6.84267 0.706092 6.8427 0.705925 6.84272 0.705741C6.84273 0.705701 6.84272 0.70579 4.8626 0.424453ZM2.91407 55.3362C5.78027 67.7252 11.8372 75.9406 17.7555 83.8463C23.6824 91.7636 29.4548 99.3549 32.4832 110.782L36.3497 109.757C33.0978 97.4868 26.8561 89.3284 20.9576 81.4492C15.0505 73.5583 9.47068 65.9304 6.81114 54.4346L2.91407 55.3362Z" fill="white"/>
</svg>
